HIERARCHY
ROOT root
{
	OFFSET 0.000000 0.000000 0.000000
	CHANNELS 6 Xposition Yposition Zposition Zrotation Yrotation Xrotation
	JOINT lhip
	{
		OFFSET 0.058581 -0.082280 -0.017664
		CHANNELS 3 Zrotation Yrotation Xrotation
		JOINT lknee
		{
			OFFSET 0.043451 -0.386469 0.008037
			CHANNELS 3 Zrotation Yrotation Xrotation
			JOINT lankle
			{
				OFFSET -0.014790 -0.426874 -0.037428
				CHANNELS 3 Zrotation Yrotation Xrotation
				JOINT ltoe
				{
					OFFSET 0.041054 -0.060286 0.122042
					CHANNELS 3 Zrotation Yrotation Xrotation
					End Site
					{
						OFFSET 0.000000 0.000000 0.000000
					}
				}
			}
		}
	}
	JOINT rhip
	{
		OFFSET -0.060310 -0.090513 -0.013543
		CHANNELS 3 Zrotation Yrotation Xrotation
		JOINT rknee
		{
			OFFSET -0.043257 -0.383688 -0.004843
			CHANNELS 3 Zrotation Yrotation Xrotation
			JOINT rankle
			{
				OFFSET 0.019056 -0.420046 -0.034562
				CHANNELS 3 Zrotation Yrotation Xrotation
				JOINT rtoe
				{
					OFFSET -0.034840 -0.062106 0.130323
					CHANNELS 3 Zrotation Yrotation Xrotation
					End Site
					{
						OFFSET 0.000000 0.000000 0.000000
					}
				}
			}
		}
	}
	JOINT lowerback
	{
		OFFSET 0.004439 0.124404 -0.038385
		CHANNELS 3 Zrotation Yrotation Xrotation
		JOINT upperback
		{
			OFFSET 0.004488 0.137956 0.026820
			CHANNELS 3 Zrotation Yrotation Xrotation
			JOINT chest
			{
				OFFSET -0.002265 0.056032 0.002855
				CHANNELS 3 Zrotation Yrotation Xrotation
				JOINT lowerneck
				{
					OFFSET -0.013390 0.211636 -0.033468
					CHANNELS 3 Zrotation Yrotation Xrotation
					JOINT upperneck
					{
						OFFSET 0.010113 0.088937 0.050410
						CHANNELS 3 Zrotation Yrotation Xrotation
						End Site
						{
							OFFSET 0.000000 0.000000 0.000000
						}
					}
				}
				JOINT lclavicle
				{
					OFFSET 0.071702 0.114000 -0.018898
					CHANNELS 3 Zrotation Yrotation Xrotation
					JOINT lshoulder
					{
						OFFSET 0.122921 0.045205 -0.019046
						CHANNELS 3 Zrotation Yrotation Xrotation
						JOINT lelbow
						{
							OFFSET 0.255332 -0.015649 -0.022946
							CHANNELS 3 Zrotation Yrotation Xrotation
							JOINT lwrist
							{
								OFFSET 0.265709 0.012698 -0.007375
								CHANNELS 3 Zrotation Yrotation Xrotation
								End Site
								{
									OFFSET 0.000000 0.000000 0.000000
								}
							}
						}
					}
				}
				JOINT rclavicle
				{
					OFFSET -0.082954 0.112472 -0.023707
					CHANNELS 3 Zrotation Yrotation Xrotation
					JOINT rshoulder
					{
						OFFSET -0.113228 0.046853 -0.008472
						CHANNELS 3 Zrotation Yrotation Xrotation
						JOINT relbow
						{
							OFFSET -0.260127 -0.014369 -0.031269
							CHANNELS 3 Zrotation Yrotation Xrotation
							JOINT rwrist
							{
								OFFSET -0.269108 0.006794 -0.006027
								CHANNELS 3 Zrotation Yrotation Xrotation
								End Site
								{
									OFFSET 0.000000 0.000000 0.000000
								}
							}
						}
					}
				}
			}
		}
	}
}
MOTION
Frames: 5
Frame Time: 0.033333
0.287191 0.404949 0.891706 -74.552987 5.544844 101.845356 6.649019 -5.673215 -53.445301 -6.321443 -7.957906 29.520579 6.288060 10.577619 -13.038217 0.000000 -0.000000 0.000000 10.766200 2.244927 -38.184496 3.243707 -12.742420 52.366802 -2.255971 -14.909492 -29.268744 0.000000 -0.000000 0.000000 -1.561294 4.774172 51.943522 0.684045 -1.655093 17.704167 2.347923 2.971026 -7.687458 -1.444434 -4.915894 5.867087 10.047071 -5.565353 -1.663469 -23.249901 -15.044369 11.114447 -52.985913 -17.134753 17.238629 -8.441345 -86.992807 56.190940 15.068770 -9.791297 36.102850 23.093256 20.360599 11.449431 58.354459 17.635255 10.465511 -37.883751 70.552346 8.549339 -22.361433 9.703692 9.940784 
0.259197 0.402524 0.885281 -75.050257 5.595522 102.178921 6.504335 -7.038593 -54.569385 -6.022488 -8.561863 34.781602 7.881037 10.349982 -11.631280 0.000000 -0.000000 0.000000 10.341771 2.706700 -38.830680 3.111438 -13.508058 57.054602 -2.242063 -14.219635 -28.506511 0.000000 -0.000000 0.000000 -1.633728 4.960207 51.594490 0.947778 -1.914084 17.603560 2.484726 2.876851 -7.879879 -1.657791 -5.244216 6.094087 10.443331 -5.082527 -1.638983 -23.155564 -15.381850 11.150126 -52.760851 -17.221642 16.842176 -11.076785 -87.312711 57.478897 15.516294 -9.522297 34.768164 23.230841 20.328242 11.376274 58.415922 17.593270 10.421839 -37.946532 70.556617 8.093655 -22.296217 9.576290 10.020886 
0.229800 0.400704 0.882284 -75.867875 5.518242 101.613931 7.675112 -8.421349 -54.896912 -6.408937 -7.793454 40.029624 9.511850 11.368240 -10.722857 0.000000 -0.000000 0.000000 9.622396 2.900333 -39.154589 3.267758 -13.465982 62.926772 -1.904831 -12.443599 -24.851890 0.000000 -0.000000 0.000000 -1.951553 5.742769 52.606238 1.570835 -1.993515 17.951105 2.584976 2.792846 -8.868083 -1.460279 -5.358074 6.268830 10.413252 -5.259340 -1.474649 -22.860513 -15.481249 11.274368 -52.594124 -17.870419 16.966998 -48.402543 -88.544816 93.589551 15.915547 -8.862918 32.391912 23.714983 20.045564 11.483790 58.239624 17.380515 10.413486 -41.380521 71.435090 4.476759 -22.541339 9.098709 10.201194 
0.202018 0.397644 0.879452 -76.945904 5.061779 101.465798 8.533691 -9.134826 -55.148533 -7.150016 -6.099596 44.109287 11.945353 12.211901 -10.397269 0.000000 -0.000000 0.000000 7.630929 3.334681 -41.550843 3.473867 -13.316643 70.359358 -0.697405 -9.444355 -18.619252 0.000000 -0.000000 0.000000 -2.467886 6.139041 52.689034 2.046738 -1.758347 18.591189 2.226836 2.810812 -9.697120 -1.211014 -5.464686 6.485839 9.925016 -5.846419 -0.612961 -22.775175 -15.771027 11.601726 -52.469972 -18.369125 17.163988 -70.040207 -88.492071 115.530878 16.160803 -8.902548 31.480880 24.523747 19.339610 11.888579 57.969105 16.878654 9.644121 -48.529116 73.498972 -2.245743 -22.847461 9.068708 10.908611 
0.176603 0.394099 0.876794 -77.421260 4.739934 101.886496 8.421202 -9.437249 -55.511907 -6.877794 -4.663510 47.553884 13.820351 12.626480 -12.601737 0.000000 -0.000000 0.000000 5.220774 3.720478 -45.504392 3.724656 -13.023226 77.278062 0.034724 -6.873384 -12.511574 0.000000 -0.000000 0.000000 -2.279044 5.350707 52.538131 2.330744 -1.550138 17.976654 1.605526 2.756823 -9.332659 -1.432308 -5.436259 6.777046 9.176342 -6.225613 -0.064107 -22.754203 -15.826639 11.739612 -52.515989 -18.568520 17.111987 -51.367921 -88.116798 98.426278 16.340787 -9.233955 31.056610 24.771660 18.094546 11.872846 58.021962 16.245756 8.206027 -56.944968 76.867674 -10.297777 -23.150491 9.259132 11.493667 
